<mxfile host="app.diagrams.net" modified="2021-09-19T19:01:46.983Z" agent="5.0 (Macintosh; Intel Mac OS X 10_15_7) AppleWebKit/537.36 (KHTML, like Gecko) Chrome/92.0.4515.107 Safari/537.36" etag="aOsM9BWGf57-9wRQPrGx" version="15.2.7" type="github">
  <diagram id="Yp6RODjUZ2DRPEcJRlio" name="Page-1">
    <mxGraphModel dx="1813" dy="573" grid="1" gridSize="10" guides="1" tooltips="1" connect="1" arrows="1" fold="1" page="1" pageScale="1" pageWidth="827" pageHeight="1169" math="0" shadow="0">
      <root>
        <mxCell id="0" />
        <mxCell id="1" parent="0" />
        <mxCell id="_b2RyNu1o5ayjHf_voNT-1" value="" style="rounded=1;arcSize=10;dashed=1;fillColor=none;gradientColor=none;dashPattern=1 1;strokeWidth=2;" vertex="1" parent="1">
          <mxGeometry x="-450" y="72.5" width="630" height="360" as="geometry" />
        </mxCell>
        <mxCell id="_b2RyNu1o5ayjHf_voNT-2" value="" style="aspect=fixed;perimeter=ellipsePerimeter;html=1;align=center;shadow=0;dashed=0;spacingTop=3;image;image=img/lib/active_directory/internet_cloud.svg;" vertex="1" parent="1">
          <mxGeometry x="-570" y="221.75" width="50" height="31.5" as="geometry" />
        </mxCell>
        <mxCell id="_b2RyNu1o5ayjHf_voNT-3" value="" style="endArrow=classic;startArrow=classic;html=1;exitX=1;exitY=0.5;exitDx=0;exitDy=0;" edge="1" parent="1" source="_b2RyNu1o5ayjHf_voNT-2" target="_b2RyNu1o5ayjHf_voNT-5">
          <mxGeometry width="50" height="50" relative="1" as="geometry">
            <mxPoint x="-360" y="302.5" as="sourcePoint" />
            <mxPoint x="-391" y="277.98" as="targetPoint" />
          </mxGeometry>
        </mxCell>
        <mxCell id="_b2RyNu1o5ayjHf_voNT-4" value="" style="rounded=1;arcSize=10;dashed=1;strokeColor=#ff0000;fillColor=none;gradientColor=none;dashPattern=8 4;strokeWidth=2;" vertex="1" parent="1">
          <mxGeometry x="-390" y="112.5" width="510" height="280" as="geometry" />
        </mxCell>
        <mxCell id="_b2RyNu1o5ayjHf_voNT-5" value="" style="sketch=0;aspect=fixed;html=1;points=[];align=center;image;fontSize=12;image=img/lib/mscae/App_Services.svg;" vertex="1" parent="1">
          <mxGeometry x="-320" y="212.5" width="50" height="50" as="geometry" />
        </mxCell>
        <mxCell id="_b2RyNu1o5ayjHf_voNT-6" value="" style="points=[[0.13,0.02,0],[0.5,0,0],[0.87,0.02,0],[0.885,0.4,0],[0.985,0.985,0],[0.5,1,0],[0.015,0.985,0],[0.115,0.4,0]];verticalLabelPosition=bottom;sketch=0;html=1;verticalAlign=top;aspect=fixed;align=center;pointerEvents=1;shape=mxgraph.cisco19.secure_endpoints;fillColor=#005073;strokeColor=none;" vertex="1" parent="1">
          <mxGeometry x="-570" y="397.5" width="50" height="35" as="geometry" />
        </mxCell>
        <mxCell id="_b2RyNu1o5ayjHf_voNT-7" value="&lt;span style=&quot;color: rgb(0 , 0 , 0) ; font-style: normal ; font-weight: 400 ; letter-spacing: normal ; text-indent: 0px ; text-transform: none ; word-spacing: 0px ; background-color: rgb(255 , 255 , 255) ; display: inline ; float: none&quot;&gt;&lt;font style=&quot;font-size: 10px&quot;&gt;https://hebaz-as-cdwbarcode-cer-eastus-001.azurewebsites.net/index.html&lt;/font&gt;&lt;/span&gt;" style="text;html=1;strokeColor=none;fillColor=none;align=center;verticalAlign=middle;whiteSpace=wrap;rounded=0;" vertex="1" parent="1">
          <mxGeometry x="-730" y="442.5" width="340" height="20" as="geometry" />
        </mxCell>
        <mxCell id="_b2RyNu1o5ayjHf_voNT-8" value="" style="endArrow=classic;startArrow=classic;html=1;entryX=0.5;entryY=1;entryDx=0;entryDy=0;" edge="1" parent="1" target="_b2RyNu1o5ayjHf_voNT-2">
          <mxGeometry width="50" height="50" relative="1" as="geometry">
            <mxPoint x="-545" y="392.5" as="sourcePoint" />
            <mxPoint x="-600" y="422.5" as="targetPoint" />
          </mxGeometry>
        </mxCell>
        <mxCell id="_b2RyNu1o5ayjHf_voNT-9" value="" style="verticalLabelPosition=bottom;html=1;verticalAlign=top;align=center;strokeColor=none;fillColor=#00BEF2;shape=mxgraph.azure.cloud;" vertex="1" parent="1">
          <mxGeometry x="-440" y="40" width="50" height="32.5" as="geometry" />
        </mxCell>
        <mxCell id="_b2RyNu1o5ayjHf_voNT-10" value="App service" style="text;html=1;strokeColor=none;fillColor=none;align=center;verticalAlign=middle;whiteSpace=wrap;rounded=0;" vertex="1" parent="1">
          <mxGeometry x="-335" y="190" width="80" height="20" as="geometry" />
        </mxCell>
        <mxCell id="_b2RyNu1o5ayjHf_voNT-11" value="" style="verticalLabelPosition=bottom;html=1;verticalAlign=top;align=center;strokeColor=none;fillColor=#00BEF2;shape=mxgraph.azure.sql_database;" vertex="1" parent="1">
          <mxGeometry x="-10" y="212.5" width="37.5" height="50" as="geometry" />
        </mxCell>
        <mxCell id="_b2RyNu1o5ayjHf_voNT-13" value="" style="endArrow=classic;startArrow=classic;html=1;entryX=-0.009;entryY=0.57;entryDx=0;entryDy=0;entryPerimeter=0;exitX=0.98;exitY=0.55;exitDx=0;exitDy=0;exitPerimeter=0;" edge="1" parent="1" source="_b2RyNu1o5ayjHf_voNT-5" target="_b2RyNu1o5ayjHf_voNT-11">
          <mxGeometry width="50" height="50" relative="1" as="geometry">
            <mxPoint x="-130" y="380" as="sourcePoint" />
            <mxPoint x="-80" y="330" as="targetPoint" />
          </mxGeometry>
        </mxCell>
        <mxCell id="_b2RyNu1o5ayjHf_voNT-16" style="edgeStyle=orthogonalEdgeStyle;rounded=0;orthogonalLoop=1;jettySize=auto;html=1;exitX=0.5;exitY=-0.026;exitDx=0;exitDy=0;exitPerimeter=0;" edge="1" parent="1" source="_b2RyNu1o5ayjHf_voNT-14" target="_b2RyNu1o5ayjHf_voNT-5">
          <mxGeometry relative="1" as="geometry">
            <mxPoint x="-303" y="580" as="sourcePoint" />
            <Array as="points" />
          </mxGeometry>
        </mxCell>
        <mxCell id="_b2RyNu1o5ayjHf_voNT-14" value="" style="sketch=0;aspect=fixed;html=1;points=[];align=center;image;fontSize=12;image=img/lib/mscae/App_Service_Mobile_App.svg;" vertex="1" parent="1">
          <mxGeometry x="-312" y="560" width="34" height="50" as="geometry" />
        </mxCell>
      </root>
    </mxGraphModel>
  </diagram>
</mxfile>
